# xmcd CD database file
#
# Track frame offsets:
#	182
#	14805
#	27710
#	38995
#	48957
#	59125
#	71815
#	87487
#	100755
#	113755
#	125745
#	140105
#	152037
#	166457
#	174710
#	187752
#	200487
#	214175
#	225395
#	237925
#	252137
#	266990
#	281975
#	294077
#
# Disc length: 4095 seconds
#
# Revision: 0
# Processed by: cddbd v1.4PL0 Copyright (c) Steve Scherf et al.
# Submitted via: Feurio! 1.65 - http://www.feurio.com
#
DISCID=770ffd18
DTITLE=Elmore James - Come Go With Me
DYEAR=1900
DGENRE=Blues
TTITLE0=Stranger Blues
TTITLE1=Anna Lee
TTITLE2=So Unkind
TTITLE3=Bobby's Rock
TTITLE4=Sunnyland Train
TTITLE5=Find My Kinda Woman
TTITLE6=Twelve Year Old Boy
TTITLE7=Stranger Blues
TTITLE8=My Kind Of Woman
TTITLE9=Mean Mistreatin' Mama
TTITLE10=Hand In Hand tk. 3
TTITLE11=I Can't Stop Lovin' You
TTITLE12=My Baby's Gone
TTITLE13=She Done Moved
TTITLE14=Make My Dreams Come True
TTITLE15=I'm Worried
TTITLE16=My Bleeding Heart
TTITLE17=Look On Yonder Wall
TTITLE18=Early One Morning
TTITLE19=Strange Angels
TTITLE20=It Hurts Me Too
TTITLE21=Everyday (I Have The Blues)
TTITLE22=I Have A Right To Love My Baby
TTITLE23=Standing At The Crossroads
EXTD=ARD Charly Records CD 180
EXTT0=
EXTT1=
EXTT2=
EXTT3=
EXTT4=
EXTT5=
EXTT6=
EXTT7=
EXTT8=
EXTT9=
EXTT10=
EXTT11=
EXTT12=
EXTT13=
EXTT14=
EXTT15=
EXTT16=
EXTT17=
EXTT18=
EXTT19=
EXTT20=
EXTT21=
EXTT22=
EXTT23=
PLAYORDER=
